# AST/ASF file generated using VICON BodyLanguage
# -----------------------------------------------
:version 1.10
:name VICON
:units
  mass 1.0
  length 0.45
  angle deg
:documentation
   .ast/.asf automatically generated from VICON data using
   VICON BodyBuilder and BodyLanguage model FoxedUp or BRILLIANT.MOD
:root
   order TX TY TZ RX RY RZ
   axis XYZ
   position 0 0 0  
   orientation 0 0 0 
:bonedata
  begin
     id 1 
     name lhipjoint
     direction 0.528046 -0.759594 0.379717 
     length 2.39752 
     axis 0 0 0  XYZ
  end
  begin
     id 2 
     name lfemur
     direction 0.34202 -0.939693 0  
     length 7.31175  
     axis 0 0 20  XYZ
    dof rx ry rz
    limits (-160.0 20.0)
           (-70.0 70.0)
           (-60.0 70.0)
  end
  begin
     id 3 
     name ltibia
     direction 0.34202 -0.939693 0   
     length 7.52482   
     axis 0 0 20   XYZ
    dof rx
    limits (-10.0 170.0)
  end
  begin
     id 4 
     name lfoot
     direction 0.0675379 -0.185559 0.980309   
     length 2.00961   
     axis -90 7.62852e-016 20   XYZ
    dof rx rz
    limits (-45.0 90.0)
           (-70.0 20.0)
  end
  begin
     id 5 
     name ltoes
     direction 1.5352e-011 -4.22286e-011 1   
     length 1.01383   
     axis -90 7.62852e-016 20   XYZ
    dof rx
    limits (-90.0 20.0)
  end
  begin
     id 6 
     name rhipjoint
     direction -0.510274 -0.769251 0.384544   
     length 2.36742  
     axis 0 0 0  XYZ 
  end
  begin
     id 7 
     name rfemur
     direction -0.34202 -0.939693 0   
     length 7.45325   
     axis 0 0 -20   XYZ
    dof rx ry rz
    limits (-160.0 20.0)
           (-70.0 70.0)
           (-70.0 60.0)
  end
  begin
     id 8 
     name rtibia
     direction -0.34202 -0.939693 0   
     length 7.49587   
     axis 0 0 -20   XYZ
    dof rx
    limits (-10.0 170.0)
 end
 begin
     id 9 
     name rfoot
     direction -0.106475 -0.292536 0.950308   
     length 2.20898  
     axis -90 -7.62852e-016 -20   XYZ
    dof rx rz
    limits (-45.0 90.0)
           (-20.0 70.0)
  end
  begin
     id 10 
     name rtoes
     direction -1.53597e-011 -4.22023e-011 1   
     length 1.10065   
     axis -90 -7.62852e-016 -20   XYZ
    dof rx
    limits (-90.0 20.0)
  end
  begin
     id 11 
     name lowerback
     direction 0.0260024 0.998026 -0.0571652   
     length 2.11214   
     axis 0 0 0   XYZ
    dof rx ry rz
    limits (-20.0 45.0)
           (-30.0 30.0)
           (-30.0 30.0)
  end
  begin
     id 12 
     name upperback
     direction 0.0216202 0.999542 -0.0211766   
     length 2.11689   
     axis 0 0 0   XYZ
    dof rx ry rz
    limits (-20.0 45.0)
           (-30.0 30.0)
           (-30.0 30.0)
  end
  begin
     id 13 
     name thorax
     direction 0.00883312 0.999944 0.00589057   
     length 2.11821   
     axis 0 0 0   XYZ
    dof rx ry rz
    limits (-20.0 45.0)
           (-30.0 30.0)
           (-30.0 30.0)
  end
  begin
     id 14 
     name lowerneck
     direction -0.059386 0.994433 0.0870401   
     length 1.81176   
     axis 0 0 0   XYZ
    dof rx ry rz
    limits (-20.0 45.0)
           (-30.0 30.0)
           (-30.0 30.0)
  end
  begin
     id 15 
     name upperneck
     direction 0.0506457 0.97328 -0.223967   
     length 1.82382   
     axis 0 0 0   XYZ
    dof rx ry rz
    limits (-20.0 45.0)
           (-30.0 30.0)
           (-30.0 30.0)
  end
  begin
     id 16
     name head
     direction 0.0205902 0.996147 -0.0852487  
     length 1.84805  
     axis 0 0 0   XYZ
    dof rx ry rz
    limits (-20.0 45.0)
           (-30.0 30.0)
           (-30.0 30.0)
  end
  begin
     id 17 
     name lclavicle
     direction 0.949493 0.303881 -0.0782325  
     length 3.60584  
     axis 0 0 0   XYZ
    dof ry rz
    limits (-20.0 10.0)
           (0.0 20.0)
  end
  begin
     id 18 
     name lhumerus
     direction 1 -4.48965e-011 1.48782e-027   
     length 4.95681   
     axis 180 -30 -90   XYZ
    dof rx ry rz
    limits (-60.0 90.0)
           (-90.0 90.0)
           (-90.0 90.0)
  end
  begin
     id 19
     name lradius
     direction 1 -4.48952e-011 2.06528e-027   
     length 3.40915   
     axis 180 -30 -90   XYZ
    dof rx
    limits (-10.0 170.0)
  end
  begin
     id 20
     name lwrist
     direction 1 -4.48964e-011 1.28021e-027   
     length 1.70457   
     axis -1.61767e-015 90 90   XYZ
    dof ry
    limits (-180.0 0.0)
 end
  begin
     id 21 
     name lhand
     direction 1 -4.49094e-011 2.54887e-027   
     length 0.616403   
     axis -1.63363e-015 90 90   XYZ
    dof rx rz
    limits (-90.0 90.0)
           (-45.0 45.0)
  end
  begin
     id 22 
     name lfingers
     direction 1 -4.49002e-011 5.11407e-027   
     length 0.49696   
     axis -3.26723e-015 90 90   XYZ
    dof rx
    limits (0.0 90.0)
  end
  begin
     id 23
     name lthumb
     direction 0.707107 -6.34998e-011 0.707107   
     length 0.713539   
     axis -90 45 -2.25915e-014   XYZ
    dof rx rz
    limits (-45.0 45.0)
           (-45.0 45.0)
  end
  begin
     id 24 
     name rclavicle
     direction -0.937751 0.334612 -0.0930482   
     length 3.46287  
     axis 0 0 0   XYZ 
    dof ry rz
    limits (-10.0 20.0)
           (-20.0 0.0)
  end
  begin
     id 25 
     name rhumerus
     direction -1 -4.48962e-011 3.59972e-027  
     length 5.352   
     axis 180 30 90   XYZ
    dof rx ry rz
    limits (-90.0 60.0)
           (-90.0 90.0)
           (-90.0 90.0)
  end
  begin
     id 26 
     name rradius
     direction -1 -4.48987e-011 -3.76925e-027   
     length 3.43721   
     axis 180 30 90   XYZ
    dof rx
    limits (-10.0 170.0)
  end
  begin
     id 27 
     name rwrist
     direction -1 -4.48943e-011 1.28112e-027   
     length 1.7186   
     axis -1.61767e-015 -90 -90   XYZ
    dof ry
    limits (-180.0 0.0)
  end
  begin
     id 28
     name rhand
     direction -1 -4.49027e-011 2.55483e-027   
     length 0.72009   
     axis -1.63363e-015 -90 -90   XYZ
    dof rx rz
    limits (-90.0 90.0)
           (-45.0 45.0)
  end
  begin
     id 29
     name rfingers
     direction -1 -4.48827e-011 5.14506e-027   
     length 0.580555   
     axis -3.26723e-015 -90 -90   XYZ
    dof rx
    limits (0.0 90.0)
  end
  begin
     id 30
     name rthumb
     direction -0.707107 -6.34936e-011 0.707107   
     length 0.833564   
     axis -90 -45 2.25915e-014   XYZ
    dof rx rz
    limits (-45.0 45.0)
           (-45.0 45.0)
  end
:hierarchy
  begin
    root lhipjoint rhipjoint lowerback
    lhipjoint lfemur
    lfemur ltibia
    ltibia lfoot
    lfoot ltoes
    rhipjoint rfemur
    rfemur rtibia
    rtibia rfoot
    rfoot rtoes
    lowerback upperback
    upperback thorax
    thorax lowerneck lclavicle rclavicle
    lowerneck upperneck
    upperneck head
    lclavicle lhumerus
    lhumerus lradius
    lradius lwrist
    lwrist lhand lthumb
    lhand lfingers
    rclavicle rhumerus
    rhumerus rradius
    rradius rwrist
    rwrist rhand rthumb
    rhand rfingers
  end

#!OML:ASF H:\Terrain\Patient Classification 1\Terrain2\Thursday\justin.ASF
:FULLY-SPECIFIED
:DEGREES
1
root -13.4849 17.4917 10.811 -138.293 84.4795 -139.905
lowerback 0.938393 0.737168 1.20838
upperback -0.286948 1.07011 3.20102
thorax -0.859983 0.557318 2.58785
lowerneck -15.2964 -1.32778 -7.62758
upperneck 36.658 2.11077 -0.0406967
head 15.4328 0.337945 1.83766
rclavicle 9.69075e-015 -2.22639e-014
rhumerus -35.4405 -13.7949 -74.5804
rradius 23.6842
rwrist -3.71285
rhand -13.9127 12.7155
rfingers 7.12502
rthumb 12.2132 -16.9079
lclavicle 9.69075e-015 -2.22639e-014
lhumerus -40.3068 18.3661 75.6687
lradius 23.4938
lwrist -7.34126
lhand -10.2728 19.5021
lfingers 7.12502
lthumb 15.7209 48.8836
rfemur -7.41004 -4.82869 24.5323
rtibia 31.4523
rfoot -22.3213 5.61174
rtoes 22.4576
lfemur -6.68185 -3.3005 -15.9778
ltibia 28.5589
lfoot -18.8801 -4.06729
ltoes 8.47762
2
root -13.4872 17.489 10.808 -139.176 84.3341 -140.842
lowerback 0.916578 0.66129 1.27576
upperback -0.217628 0.967065 3.20831
thorax -0.77195 0.505323 2.56004
lowerneck -15.1516 -1.29755 -7.55903
upperneck 36.5148 2.1372 -0.126311
head 15.329 0.350792 1.78908
rclavicle -2.95195e-014 -4.8901e-014
rhumerus -35.428 -14.0532 -74.4148
rradius 23.3198
rwrist -2.9237
rhand -13.7294 12.7081
rfingers 7.12502
rthumb 12.39 -16.9047
lclavicle -2.95195e-014 -4.8901e-014
lhumerus -40.3485 18.2697 75.8105
lradius 23.533
lwrist -6.88566
lhand -10.9875 19.748
lfingers 7.12502
lthumb 15.0325 49.1823
rfemur -7.52266 -4.98345 24.5382
rtibia 31.5718
rfoot -22.3265 5.62892
rtoes 23.0215
lfemur -6.76864 -3.19449 -15.9832
ltibia 28.4735
lfoot -18.9177 -3.77715
ltoes 5.4504
3
root -13.4866 17.4886 10.8059 -139.385 84.1923 -141.053
lowerback 0.91283 0.643947 1.39001
upperback -0.162177 0.945801 3.26695
thorax -0.711482 0.495064 2.55706
lowerneck -15.2845 -1.39932 -7.59325
upperneck 36.7969 2.08498 -0.215585
head 15.5063 0.307731 1.75657
rclavicle -1.09332e-015 -7.15625e-015
rhumerus -35.5329 -14.5068 -74.0396
rradius 23.0114
rwrist -2.03605
rhand -13.7028 12.4615
rfingers 7.12502
rthumb 12.4156 -17.1498
lclavicle -1.09332e-015 -7.15625e-015
lhumerus -40.4932 18.346 75.8944
lradius 23.5684
lwrist -7.1615
lhand -11.3606 20.0634
lfingers 7.12502
lthumb 14.6731 49.5242
rfemur -7.50903 -5.07636 24.6034
rtibia 31.5786
rfoot -22.2905 5.55348
rtoes 23.2162
lfemur -6.77312 -3.23097 -15.8912
ltibia 28.453
lfoot -18.8239 -3.95208
ltoes 6.60992
4
root -13.4818 17.4848 10.804 -141.279 84.2525 -142.851
lowerback 0.95172 0.63568 1.23093
upperback -0.0613469 0.929069 3.2454
thorax -0.631425 0.48627 2.62473
lowerneck -15.4819 -1.46796 -7.66112
upperneck 37.2006 2.08956 -0.228841
head 15.7573 0.292505 1.77542
rclavicle -2.95692e-015 3.18055e-015
rhumerus -35.653 -14.7704 -73.7759
rradius 22.7772
rwrist -1.54818
rhand -13.3872 12.1085
rfingers 7.12502
rthumb 12.7199 -17.4841
lclavicle -2.95692e-015 3.18055e-015
lhumerus -40.734 18.763 75.7133
lradius 23.637
lwrist -8.19119
lhand -10.3372 20.3562
lfingers 7.12502
lthumb 15.6589 49.7426
rfemur -7.37501 -5.26776 24.3624
rtibia 31.5991
rfoot -22.4169 5.61245
rtoes 22.5637
lfemur -6.61957 -3.16014 -16.0796
ltibia 28.4201
lfoot -18.7188 -4.28894
ltoes 7.83897
5
root -13.481 17.4832 10.8043 -142.687 84.2682 -144.146
lowerback 1.06036 0.574472 1.08966
upperback 0.0488728 0.844694 3.24517
thorax -0.578228 0.443717 2.70473
lowerneck -15.5247 -1.4136 -7.73271
upperneck 37.3448 2.19463 -0.154076
head 15.8335 0.335367 1.84262
rclavicle 8.22472e-015 -3.18055e-014
rhumerus -35.6723 -14.5164 -73.7706
rradius 22.5855
rwrist -1.39928
rhand -12.9733 12.0241
rfingers 7.12502
rthumb 13.1189 -17.5432
lclavicle 8.22472e-015 -3.18055e-014
lhumerus -40.9215 19.1041 75.6376
lradius 23.7047
lwrist -8.4957
lhand -9.92902 20.2774
lfingers 7.12502
lthumb 16.052 49.6325
rfemur -7.24024 -5.35814 24.2317
rtibia 31.5946
rfoot -22.4485 5.55897
rtoes 22.0155
lfemur -6.46048 -3.40624 -16.2261
ltibia 28.3958
lfoot -18.7636 -4.22995
ltoes 8.04646
6
root -13.4857 17.4853 10.8056 -142.667 84.1474 -144.105
lowerback 1.15812 0.513277 1.15422
upperback 0.10266 0.767217 3.29575
thorax -0.57477 0.405418 2.72117
lowerneck -15.5394 -1.34457 -7.64469
upperneck 37.4304 2.31512 -0.224017
head 15.8765 0.388388 1.82072
rclavicle -1.63997e-015 -1.90833e-014
rhumerus -35.6979 -14.2249 -73.8162
rradius 22.4636
rwrist -1.19129
rhand -12.7696 12.055
rfingers 7.12502
rthumb 13.3153 -17.4997
lclavicle -1.63997e-015 -1.90833e-014
lhumerus -41.017 19.0423 75.8614
lradius 23.7873
lwrist -7.69954
lhand -10.4514 19.9702
lfingers 7.12502
lthumb 15.5489 49.3651
rfemur -7.24168 -5.28563 24.3449
rtibia 31.6159
rfoot -22.3913 5.37511
rtoes 22.032
lfemur -6.42841 -3.82984 -16.1721
ltibia 28.347
lfoot -18.8223 -3.92735
ltoes 8.15507
